<?xml version="1.0" encoding="UTF-8"?>
<svg version="1.1" xmlns="http://www.w3.org/2000/svg" width="48" height="48">
<path d="M0 0 C3.24584326 2.1638955 3.87332747 3.55242371 4.9375 7.3125 C5.01359723 11.80223652 4.01880867 14.04313501 2 18 C3.32 18.66 4.64 19.32 6 20 C6.1875 22.375 6.1875 22.375 6 25 C2.3570952 27.4286032 0.58696159 27.25761901 -3.75 27.265625 C-4.40452148 27.26753845 -5.05904297 27.2694519 -5.73339844 27.27142334 C-7.11523829 27.27278245 -8.49709103 27.26910513 -9.87890625 27.26074219 C-11.9924796 27.25003809 -14.10520305 27.26064601 -16.21875 27.2734375 C-17.56250187 27.27211586 -18.90625322 27.26955336 -20.25 27.265625 C-21.47203125 27.26336914 -22.6940625 27.26111328 -23.953125 27.25878906 C-27 27 -27 27 -30 25 C-30.9584171 22.19847309 -31.18147911 20.59393164 -30.3125 17.75 C-29 16 -29 16 -26.875 15.25 C-25.946875 15.12625 -25.946875 15.12625 -25 15 C-24.95875 14.2575 -24.9175 13.515 -24.875 12.75 C-23.63498112 8.8527978 -21.51756632 7.89948581 -18 6 C-17.01 6 -16.02 6 -15 6 C-14.6596875 5.1028125 -14.6596875 5.1028125 -14.3125 4.1875 C-10.8910578 -1.51490367 -5.8672588 -1.779817 0 0 Z " fill="#1BB5EB" transform="translate(34,14)"/>
<path d="M0 0 C3.31620379 2.21080253 3.88798279 3.55993237 4.875 7.4375 C4.9993097 10.98032632 4.60365676 12.88701924 3 16 C-3.08408745 14.36962362 -6.64524339 12.72802147 -11 8 C-13.17346568 7.13880866 -13.17346568 7.13880866 -15 7 C-14.4376049 3.73810844 -13.5859495 2.08865152 -11 0 C-7.14846789 -1.28384404 -3.87258942 -0.99157028 0 0 Z " fill="#FDC106" transform="translate(34,14)"/>
<path d="M0 0 C0.99 0 1.98 0 3 0 C2.67 1.65 2.34 3.3 2 5 C1.34 4.67 0.68 4.34 0 4 C0 2.68 0 1.36 0 0 Z " fill="#FFC504" transform="translate(27,7)"/>
<path d="M0 0 C2.475 0.495 2.475 0.495 5 1 C4.67 1.66 4.34 2.32 4 3 C2.68 2.67 1.36 2.34 0 2 C0 1.34 0 0.68 0 0 Z " fill="#FFBE04" transform="translate(40,22)"/>
<path d="M0 0 C1.32 0 2.64 0 4 0 C3.67 0.99 3.34 1.98 3 3 C1.68 2.67 0.36 2.34 -1 2 C-0.67 1.34 -0.34 0.68 0 0 Z " fill="#FFCA03" transform="translate(39,15)"/>
<path d="M0 0 C1.98 0.495 1.98 0.495 4 1 C3.67 1.66 3.34 2.32 3 3 C1.68 2.67 0.36 2.34 -1 2 C-0.67 1.34 -0.34 0.68 0 0 Z " fill="#FFCB04" transform="translate(39,29)"/>
<path d="M0 0 C1.32 0 2.64 0 4 0 C4 0.99 4 1.98 4 3 C2.68 2.67 1.36 2.34 0 2 C0 1.34 0 0.68 0 0 Z " fill="#FFC004" transform="translate(14,15)"/>
<path d="M0 0 C0.66 0 1.32 0 2 0 C2 1.32 2 2.64 2 4 C1.01 4 0.02 4 -1 4 C-0.67 2.68 -0.34 1.36 0 0 Z " fill="#FFC604" transform="translate(35,9)"/>
<path d="M0 0 C0.99 0.33 1.98 0.66 3 1 C3 1.99 3 2.98 3 4 C2.01 4 1.02 4 0 4 C0 2.68 0 1.36 0 0 Z " fill="#FFBF05" transform="translate(20,9)"/>
</svg>
